<svg width="320" height="40" viewBox="0 0 320 40" fill="none" xmlns="http://www.w3.org/2000/svg">
<path d="M35.2354 0C45.7288 3.12768e-07 54.2354 8.50659 54.2354 19V40C49.8171 40 46.2354 36.4183 46.2354 32V19C46.2354 12.9249 41.3105 8 35.2354 8H30.0342C27.3821 8.00004 24.8382 9.05339 22.9629 10.9287L9.40723 24.4854C8.65714 25.2354 8.23541 26.2527 8.23535 27.3135V28C8.23535 30.2091 10.0262 32 12.2354 32H30.2354C30.2354 36.2801 26.8742 39.7748 22.6475 39.9893L22.2354 40H12.2354C5.60794 40 0.235352 34.6274 0.235352 28V27.3135C0.235414 24.131 1.49962 21.0785 3.75 18.8281L17.3066 5.27246C20.6823 1.89685 25.2603 4.37597e-05 30.0342 0H35.2354Z" fill="#FF500B"/>
<path d="M37.2354 12C39.9968 12 42.2354 14.2386 42.2354 17V40C37.8171 40 34.2354 36.4183 34.2354 32V20H30.8916L24.3561 26.5355C23.4184 27.4732 22.1466 28 20.8205 28H12.7129C12.2941 28 12.0844 27.4937 12.3805 27.1976L26.1143 13.4648C27.0519 12.5272 28.3234 12 29.6494 12H37.2354Z" fill="#FF500B"/>

<!-- "L" -->
<path d="M74.9588 25.1447C74.9588 25.5161 75.293 25.8504 75.6645 25.8504H91.3755V30.0474H75.6645C72.9531 30.0474 70.7617 27.8561 70.7617 25.1447V12.1078H74.9588V25.1447Z" fill="#A62F00"/>

<!-- "a" -->
<path d="M108.5 30.0475C103.56 30.0475 99.5858 26.0733 99.5858 21.1334C99.5858 16.2306 103.56 12.2193 108.5 12.2193H115.037C119.977 12.2193 123.951 16.2306 123.951 21.1334V30.0475H119.754V21.1334C119.754 18.5706 117.637 16.4535 115.037 16.4535H108.5C105.9 16.4535 103.783 18.5706 103.783 21.1334C103.783 23.7333 105.9 25.8504 108.5 25.8504H116.5V30.0475H108.5Z" fill="#A62F00"/>

<!-- "u" -->
<path d="M137.15 30.0475C132.878 30.0475 129.424 26.5932 129.424 22.3219V12.2193H133.621V22.3219C133.621 24.2533 135.218 25.8504 137.15 25.8504H146.064C147.995 25.8504 149.592 24.2533 149.592 22.3219V12.2193H153.789V22.3219C153.789 26.5932 150.335 30.0475 146.064 30.0475H137.15Z" fill="#A62F00"/>

<!-- "n" -->
<path d="M167.714 12.2193H171.911V18.5706C171.911 15.0792 174.733 12.2193 178.225 12.2193H188.033C190.744 12.2193 192.935 14.4478 192.935 17.1592V30.0475H188.738V17.1592C188.738 16.7878 188.404 16.4535 188.033 16.4535H178.225C177.073 16.4535 176.108 17.4192 176.108 18.5706V30.0475H171.911V20.6877H167.714V12.2193Z" fill="#A62F00"/>

<!-- "c" -->
<path d="M210.595 30.0475C205.655 30.0475 201.681 26.0733 201.681 21.1334C201.681 16.2306 205.655 12.2193 210.595 12.2193H223.483V16.4535H210.595C207.995 16.4535 205.878 18.5706 205.878 21.1334C205.878 23.7333 207.995 25.8504 210.595 25.8504H220.066C220.772 25.8504 221.366 25.2561 221.366 24.5504C221.366 23.8447 220.772 23.2505 220.066 23.2505H209.889V19.0534H220.066C223.112 19.0534 225.6 21.5048 225.6 24.5504C225.6 27.5961 223.112 30.0475 220.066 30.0475H210.595Z" fill="#A62F00"/>

<!-- "h" -->
<path d="M237.714 12.2193H241.911V18.5706C241.911 15.0792 244.733 12.2193 248.225 12.2193H258.033C260.744 12.2193 262.935 14.4478 262.935 17.1592V30.0475H258.738V17.1592C258.738 16.7878 258.404 16.4535 258.033 16.4535H248.225C247.073 16.4535 246.108 17.4192 246.108 18.5706V30.0475H241.911V20.6877H237.714V12.2193Z" fill="#A62F00"/>

<!-- "p" -->
<path d="M276.783 30.0475V12.2193H280.98V17.1592C280.98 16.7878 281.315 16.4535 281.686 16.4535H292.494C295.986 16.4535 298.808 19.3135 298.808 22.8048C298.808 26.2962 295.986 29.1562 292.494 29.1562H280.98V30.0475H276.783ZM280.98 17.1592V24.9219H292.494C293.646 24.9219 294.611 23.9562 294.611 22.8048C294.611 21.6535 293.646 20.6877 292.494 20.6877H281.686C281.315 20.6877 280.98 21.0221 280.98 21.3935V17.1592Z" fill="#A62F00"/>

<!-- "a" (second one) -->
<path d="M316.5 30.0475C311.56 30.0475 307.586 26.0733 307.586 21.1334C307.586 16.2306 311.56 12.2193 316.5 12.2193H323.037C327.977 12.2193 331.951 16.2306 331.951 21.1334V30.0475H327.754V21.1334C327.754 18.5706 325.637 16.4535 323.037 16.4535H316.5C313.9 16.4535 311.783 18.5706 311.783 21.1334C311.783 23.7333 313.9 25.8504 316.5 25.8504H324.5V30.0475H316.5Z" fill="#A62F00"/>

<!-- "d" -->
<path d="M344.15 30.0475C339.21 30.0475 335.236 26.0733 335.236 21.1334C335.236 16.2306 339.21 12.2193 344.15 12.2193H354.958C357.669 12.2193 359.861 14.4478 359.861 17.1592V30.0475H355.664V17.1592C355.664 16.7878 355.329 16.4535 354.958 16.4535H344.15C341.55 16.4535 339.433 18.5706 339.433 21.1334C339.433 23.7333 341.55 25.8504 344.15 25.8504H359.861V30.0475H344.15Z" fill="#A62F00"/>

</svg>